<?xml version="1.0" encoding="UTF-8"?>
<svg id="Layer_2" data-name="Layer 2" xmlns="http://www.w3.org/2000/svg" viewBox="0 0 600.87 112.28">
  <defs>
    <style>
      .cls-1 {
        fill: #3d67b1;
      }

      .cls-2 {
        stroke: #7562ab;
      }

      .cls-2, .cls-3 {
        fill: none;
        stroke-miterlimit: 10;
        stroke-width: 3px;
      }

      .cls-4 {
        fill: #7562ab;
      }

      .cls-3 {
        stroke: #3d67b1;
      }
    </style>
  </defs>
  <g id="Layer_1-2" data-name="Layer 1">
    <g>
      <path class="cls-2" d="m182.12,42.9c0,2.69,2.17,4.86,4.85,4.86h17.08v12.52h-17.08c-2.68,0-4.85,2.17-4.85,4.85v.02c0,2.68,2.17,4.85,4.85,4.85h17.08v6.68c0,1.14.93,2.07,2.07,2.07h24.22v32.03H31.91c-16.79,0-30.41-13.62-30.41-30.41V31.91C1.5,15.12,15.12,1.5,31.91,1.5h198.43v26.52h-24.22c-1.14,0-2.07.93-2.07,2.07v7.96h-17.08c-2.68,0-4.85,2.17-4.85,4.85Z"/>
      <g>
        <path class="cls-4" d="m42.43,63.81c.07,4.11,2.74,6.82,6.75,6.82,4.43,0,6.82-2.74,6.82-7.84V28.02h10.62v34.84c0,10.79-6.47,16.95-17.33,16.95s-17.16-6.29-17.16-16h10.3Z"/>
        <path class="cls-4" d="m73.19,59.87c0-12.2,7.38-19.62,18.67-19.62s18.67,7.38,18.67,19.62-7.28,19.69-18.67,19.69-18.67-7.31-18.67-19.69Zm26.89.04c0-7.49-3.23-11.81-8.23-11.81s-8.26,4.32-8.26,11.81,3.2,11.81,8.26,11.81,8.23-4.25,8.23-11.81Z"/>
        <path class="cls-4" d="m126.38,72.28h-.21v6.47h-10.12V28.02h10.27v19.58h.21c2.07-4.46,6.26-7.14,11.64-7.14,9.49,0,15.33,7.28,15.33,19.44s-5.8,19.44-15.29,19.44c-5.52,0-9.74-2.67-11.81-7.07Zm-.11-12.38c0,6.82,3.38,11.18,8.37,11.18s8.33-4.29,8.33-11.18-3.23-11.21-8.33-11.21-8.37,4.46-8.37,11.21Z"/>
      </g>
    </g>
    <g>
      <path class="cls-3" d="m233.34,28.02h0V1.5l335.5.28c16.87,0,30.53,13.66,30.53,30.53v47.94c0,16.86-13.66,30.53-30.53,30.53H233.34v-32.03"/>
      <g>
        <g>
          <path class="cls-1" d="m344.08,59.87c0-12.2,7.38-19.62,18.67-19.62s18.67,7.38,18.67,19.62-7.28,19.69-18.67,19.69-18.67-7.31-18.67-19.69Zm26.89.04c0-7.49-3.23-11.81-8.23-11.81s-8.26,4.32-8.26,11.81,3.2,11.81,8.26,11.81,8.23-4.25,8.23-11.81Z"/>
          <path class="cls-1" d="m386.69,41.06h9.91v6.71h.21c2-4.68,5.98-7.42,11.78-7.42,8.37,0,13.08,5.27,13.08,14.1v24.29h-10.27v-22.15c0-4.92-2.32-7.73-6.93-7.73s-7.52,3.38-7.52,8.26v21.62h-10.27v-37.69Z"/>
          <path class="cls-1" d="m428.17,41.06h9.91v6.71h.21c2-4.68,5.98-7.42,11.78-7.42,8.37,0,13.08,5.27,13.08,14.1v24.29h-10.27v-22.15c0-4.92-2.32-7.73-6.93-7.73s-7.52,3.38-7.52,8.26v21.62h-10.27v-37.69Z"/>
          <path class="cls-1" d="m504.04,67.22c-1.12,7.38-7.88,12.34-17.19,12.34-11.6,0-18.56-7.42-18.56-19.48s7.03-19.83,18.18-19.83,17.89,7.42,17.89,18.88v3.13h-25.98v.63c0,5.38,3.41,9.07,8.65,9.07,3.76,0,6.64-1.86,7.59-4.75h9.42Zm-25.56-11.25h16c-.21-4.82-3.34-8.12-7.91-8.12s-7.73,3.41-8.09,8.12Z"/>
          <path class="cls-1" d="m534.34,55.09c-.6-3.97-3.23-6.79-7.45-6.79-5.06,0-8.23,4.29-8.23,11.57s3.16,11.64,8.26,11.64c4.11,0,6.79-2.46,7.42-6.57h9.56c-.53,8.89-7.17,14.62-17.09,14.62-11.36,0-18.56-7.38-18.56-19.69s7.21-19.62,18.49-19.62c10.2,0,16.66,6.29,17.12,14.84h-9.53Z"/>
          <path class="cls-1" d="m561.87,32.38v8.68h6.96v7.73h-6.96v18.04c0,2.88,1.41,4.25,4.43,4.25.91,0,1.86-.07,2.5-.18v7.56c-1.05.25-2.81.42-4.89.42-8.86,0-12.3-2.95-12.3-10.3v-19.79h-5.31v-7.73h5.31v-8.68h10.27Z"/>
        </g>
        <path class="cls-1" d="m339.08,53.36c0,16.39-9.24,26.27-24.01,26.27-12.45,0-21.13-7.18-22.32-18.5h10.33c1.13,6.02,5.66,9.71,11.95,9.71,7.22,0,12.04-5.27,13.03-14.04-5.09,1.28-12.12,2.52-20.44,2.39-12.08-.19-17.7-3.12-31.07-4.07-3.81-.27-8.81-.42-14.78-.03v3.62c0,11.07-8.97,20.04-20.04,20.04h-35.61c-1.14,0-2.07-.93-2.07-2.07v-6.68h-17.08c-2.68,0-4.85-2.17-4.85-4.85v-.02c0-2.68,2.17-4.85,4.85-4.85h17.08v-12.52h-17.08c-2.68,0-4.85-2.17-4.85-4.86s2.17-4.85,4.85-4.85h17.08v-7.96c0-1.14.93-2.07,2.07-2.07h22.63l12.98.32c10.86,0,19.7,8.63,20.02,19.4,5.82-.53,10.8-.42,14.8-.12,13.03.99,18.53,4.35,30.65,4.71,8.27.25,15.39-1.02,20.85-2.49-1.01-8.64-5.87-13.91-12.98-13.91-6.19,0-10.97,4.08-11.95,10.3h-10.34c.81-11.36,10.09-19.09,22.29-19.09,14.7,0,24.01,9.88,24.01,26.22Z"/>
      </g>
    </g>
  </g>
</svg>